<?xml version="1.0" encoding="UTF-8"?><svg xmlns="http://www.w3.org/2000/svg" viewBox="0 0 347.27 352.55"><defs><style>.d{fill:#2868c9;}</style></defs><g id="a"/><g id="b"><g id="c"><path class="d" d="M119.31,190.74c4.85,4.78,9.3,9.16,13.95,13.74-.47,.54-.9,1.12-1.4,1.62-23.21,23.25-46.43,46.47-69.63,69.73-9.73,9.76-19.41,19.59-29.08,29.41-5.5,5.58-10.98,11.18-16.37,16.86-1.53,1.62-2.55,1.77-4.16,.03-3.38-3.64-6.99-7.07-10.52-10.58-2.22-2.21-2.25-2.31,.06-4.62,5.53-5.55,11.04-11.12,16.63-16.61,12.11-11.86,24.34-23.6,36.39-35.51,20.97-20.72,41.85-41.53,62.76-62.32,.53-.53,.92-1.19,1.36-1.76Z"/><path class="d" d="M147.2,132.93c-20.3-20.27-40.3-40.25-60.3-60.23C67.86,53.68,48.83,34.64,29.79,15.61c-2.06-2.06-2.07-2.18,.04-4.29,3.4-3.42,6.87-6.77,10.19-10.26,1.38-1.45,2.25-1.38,3.64,.03,16.31,16.51,32.65,32.99,49.03,49.42,22.14,22.21,44.3,44.39,66.51,66.53,1.45,1.45,1.62,2.26,.06,3.75-4.02,3.84-7.85,7.87-12.07,12.14Z"/><path class="d" d="M133.06,147.02c-4.83,4.79-8.92,8.79-12.93,12.87-1.27,1.29-2.06,.59-2.98-.34-6.49-6.51-12.99-13.02-19.49-19.52C65.73,108.11,33.81,76.2,1.89,44.28q-2.51-2.51-.08-4.95c3.19-3.2,6.43-6.36,9.55-9.62,1.25-1.3,2.05-1.43,3.44-.04,18.89,18.98,37.84,37.9,56.78,56.83,19.58,19.57,39.14,39.16,58.74,58.71,.68,.68,1.63,1.09,2.74,1.81Z"/><path class="d" d="M29.28,338.77c.38-.59,.61-1.16,1.02-1.55,4.84-4.74,9.71-9.46,14.57-14.19,6.26-6.09,12.59-12.12,18.78-18.28,27.84-27.67,55.66-55.37,83.44-83.1,1.41-1.41,2.25-1.38,3.61,.06,3.68,3.87,7.53,7.58,11.4,11.45-.48,.54-.85,1-1.26,1.41-10.45,10.46-20.93,20.88-31.34,31.37-7.11,7.16-14.12,14.41-21.2,21.61-12.63,12.85-25.26,25.69-37.91,38.52-8.19,8.32-16.41,16.61-24.62,24.91-2.12,2.14-2.14,2.11-4.25,0-4.05-4.04-8.11-8.07-12.25-12.19Z"/><path class="d" d="M304.41,4.97c4.64,4.7,8.95,9.13,13.33,13.49,1.32,1.32,.21,1.96-.55,2.73-7.56,7.58-15.12,15.17-22.71,22.73-29.16,29.03-58.34,58.05-87.49,87.09-.63,.63-1.08,1.46-1.56,2.13-4.85-4.94-9.29-9.46-13.79-14.04,37.34-37.79,74.93-75.83,112.77-114.12Z"/><path class="d" d="M347.27,304.87c-2.36,2.18-4.65,4.24-6.87,6.36-1.91,1.82-3.85,3.63-5.59,5.6-1.38,1.57-2.32,1.56-3.81,.05-7.93-8.06-15.97-16.02-23.97-24.01-14.93-14.93-29.91-29.8-44.76-44.8-13.78-13.91-27.42-27.96-41.11-41.95-.2-.21-.35-.47-.66-.89,4.19-4.15,8.36-8.28,12.52-12.41,1.08-1.07,1.73-.16,2.42,.53,4.64,4.63,9.28,9.27,13.92,13.91,5.22,5.22,10.43,10.47,15.67,15.68,26.64,26.5,53.3,53,79.94,79.5,.63,.63,1.22,1.3,2.29,2.44Z"/><path class="d" d="M205.44,220.29c9.56,9.7,18.79,19.23,28.19,28.57,27.56,27.39,55.2,54.71,82.8,82.06,2.12,2.1,2.12,2.13,.07,4.2-3.35,3.37-6.79,6.65-10.03,10.12-1.6,1.71-2.61,1.52-4.19-.06-21.01-21.1-42.08-42.15-63.14-63.2-4.53-4.53-9.08-9.04-13.59-13.6-10.75-10.86-21.46-21.77-32.23-32.6-1.22-1.23-1.35-1.99-.04-3.25,3.99-3.87,7.86-7.87,12.17-12.23Z"/><path class="d" d="M233.62,161.69c-4.48-4.5-8.77-8.81-13.3-13.34,4.66-4.62,9.4-9.23,14.06-13.93,22.17-22.37,44.31-44.78,66.48-67.16,10.28-10.38,20.62-20.7,30.86-31.12,1.49-1.51,2.36-1.45,3.77,.04,3.47,3.67,7.09,7.21,10.69,10.74,1.08,1.06,1.22,1.78,.02,2.95-8.28,8.12-16.5,16.32-24.73,24.5-28.92,28.78-57.84,57.56-86.77,86.33-.31,.31-.66,.59-1.09,.97Z"/><path class="d" d="M176.48,162.06c-4.55-4.63-8.84-8.94-13.03-13.34-.29-.3-.17-1.46,.17-1.81,4.08-4.22,8.24-8.35,12.6-12.74,1.46,1.44,2.83,2.77,4.19,4.13,2.83,2.82,5.62,5.66,8.47,8.45,.79,.78,1.31,1.44,.33,2.43-4.13,4.16-8.24,8.33-12.73,12.88Z"/><path class="d" d="M134.22,176.76c4.67-4.65,9.09-9.04,13.41-13.34,4.33,4.32,8.88,8.85,13.67,13.62-2.11,2.13-4.31,4.35-6.52,6.57-1.86,1.87-3.69,3.78-5.64,5.54-.43,.39-1.68,.58-2,.28-4.39-4.19-8.69-8.49-12.92-12.67Z"/><path class="d" d="M191.57,177.1c4.51-4.47,8.65-8.63,12.88-12.69,.36-.34,1.61-.36,1.96-.02,4.13,3.95,8.16,8,12.39,12.18-3.54,3.55-6.92,6.96-10.32,10.34q-3.46,3.45-6.87,.06c-3.25-3.22-6.52-6.42-10.04-9.88Z"/><path class="d" d="M176.73,218.8c-4.54-4.61-8.8-8.94-12.95-13.15,4.19-4.2,8.58-8.6,13.16-13.18,.37,.33,.99,.83,1.55,1.39,3.41,3.41,6.84,6.79,10.17,10.28,.43,.45,.66,1.81,.34,2.14-3.99,4.2-8.09,8.29-12.28,12.52Z"/></g></g></svg>