<?xml version="1.0" encoding="UTF-8"?><svg xmlns="http://www.w3.org/2000/svg" viewBox="0 0 1190.14 391.39"><defs><style>.d{fill:#fff;}.e{fill:#2868c9;}</style></defs><g id="a"/><g id="b"><g id="c"><path class="e" d="M119.31,229.58c4.85,4.78,9.3,9.16,13.95,13.74-.47,.54-.9,1.12-1.4,1.62-23.21,23.25-46.43,46.47-69.63,69.73-9.73,9.76-19.41,19.59-29.08,29.41-5.5,5.58-10.98,11.18-16.37,16.86-1.53,1.62-2.55,1.77-4.16,.03-3.38-3.64-6.99-7.07-10.52-10.58-2.22-2.21-2.25-2.31,.06-4.62,5.53-5.55,11.04-11.12,16.63-16.61,12.11-11.86,24.34-23.6,36.39-35.51,20.97-20.72,41.85-41.53,62.76-62.32,.53-.53,.92-1.19,1.36-1.76Z"/><path class="e" d="M147.2,171.77c-20.3-20.27-40.3-40.25-60.3-60.23-19.04-19.03-38.07-38.06-57.11-57.1-2.06-2.06-2.07-2.18,.04-4.29,3.4-3.42,6.87-6.77,10.19-10.26,1.38-1.45,2.25-1.38,3.64,.03,16.31,16.51,32.65,32.99,49.03,49.42,22.14,22.21,44.3,44.39,66.51,66.53,1.45,1.45,1.62,2.26,.06,3.75-4.02,3.84-7.85,7.87-12.07,12.14Z"/><path class="e" d="M133.06,185.86c-4.83,4.79-8.92,8.79-12.93,12.87-1.27,1.29-2.06,.59-2.98-.34-6.49-6.51-12.99-13.02-19.49-19.52C65.73,146.95,33.81,115.03,1.89,83.11q-2.51-2.51-.08-4.95c3.19-3.2,6.43-6.36,9.55-9.62,1.25-1.3,2.05-1.43,3.44-.04,18.89,18.98,37.84,37.9,56.78,56.83,19.58,19.57,39.14,39.16,58.74,58.71,.68,.68,1.63,1.09,2.74,1.81Z"/><path class="e" d="M29.28,377.61c.38-.59,.61-1.16,1.02-1.55,4.84-4.74,9.71-9.46,14.57-14.19,6.26-6.09,12.59-12.12,18.78-18.28,27.84-27.67,55.66-55.37,83.44-83.1,1.41-1.41,2.25-1.38,3.61,.06,3.68,3.87,7.53,7.58,11.4,11.45-.48,.54-.85,1-1.26,1.41-10.45,10.46-20.93,20.88-31.34,31.37-7.11,7.16-14.12,14.41-21.2,21.61-12.63,12.85-25.26,25.69-37.91,38.52-8.19,8.32-16.41,16.61-24.62,24.91-2.12,2.14-2.14,2.11-4.25,0-4.05-4.04-8.11-8.07-12.25-12.19Z"/><path class="e" d="M304.41,43.81c4.64,4.7,8.95,9.13,13.33,13.49,1.32,1.32,.21,1.96-.55,2.73-7.56,7.58-15.12,15.17-22.71,22.73-29.16,29.03-58.34,58.05-87.49,87.09-.63,.63-1.08,1.46-1.56,2.13-4.85-4.94-9.29-9.46-13.79-14.04,37.34-37.79,74.93-75.83,112.77-114.12Z"/><path class="e" d="M347.27,343.71c-2.36,2.18-4.65,4.24-6.87,6.36-1.91,1.82-3.85,3.63-5.59,5.6-1.38,1.57-2.32,1.56-3.81,.05-7.93-8.06-15.97-16.02-23.97-24.01-14.93-14.93-29.91-29.8-44.76-44.8-13.78-13.91-27.42-27.96-41.11-41.95-.2-.21-.35-.47-.66-.89,4.19-4.15,8.36-8.28,12.52-12.41,1.08-1.07,1.73-.16,2.42,.53,4.64,4.63,9.28,9.27,13.92,13.91,5.22,5.22,10.43,10.47,15.67,15.68,26.64,26.5,53.3,53,79.94,79.5,.63,.63,1.22,1.3,2.29,2.44Z"/><path class="e" d="M205.44,259.13c9.56,9.7,18.79,19.23,28.19,28.57,27.56,27.39,55.2,54.71,82.8,82.06,2.12,2.1,2.12,2.13,.07,4.2-3.35,3.37-6.79,6.65-10.03,10.12-1.6,1.71-2.61,1.52-4.19-.06-21.01-21.1-42.08-42.15-63.14-63.2-4.53-4.53-9.08-9.04-13.59-13.6-10.75-10.86-21.46-21.77-32.23-32.6-1.22-1.23-1.35-1.99-.04-3.25,3.99-3.87,7.86-7.87,12.17-12.23Z"/><path class="e" d="M233.62,200.53c-4.48-4.5-8.77-8.81-13.3-13.34,4.66-4.62,9.4-9.23,14.06-13.93,22.17-22.37,44.31-44.78,66.48-67.16,10.28-10.38,20.62-20.7,30.86-31.12,1.49-1.51,2.36-1.45,3.77,.04,3.47,3.67,7.09,7.21,10.69,10.74,1.08,1.06,1.22,1.78,.02,2.95-8.28,8.12-16.5,16.32-24.73,24.5-28.92,28.78-57.84,57.56-86.77,86.33-.31,.31-.66,.59-1.09,.97Z"/><path class="e" d="M176.48,200.9c-4.55-4.63-8.84-8.94-13.03-13.34-.29-.3-.17-1.46,.17-1.81,4.08-4.22,8.24-8.35,12.6-12.74,1.46,1.44,2.83,2.77,4.19,4.13,2.83,2.82,5.62,5.66,8.47,8.45,.79,.78,1.31,1.44,.33,2.43-4.13,4.16-8.24,8.33-12.73,12.88Z"/><path class="e" d="M134.22,215.6c4.67-4.65,9.09-9.04,13.41-13.34,4.33,4.32,8.88,8.85,13.67,13.62-2.11,2.13-4.31,4.35-6.52,6.57-1.86,1.87-3.69,3.78-5.64,5.54-.43,.39-1.68,.58-2,.28-4.39-4.19-8.69-8.49-12.92-12.67Z"/><path class="e" d="M191.57,215.93c4.51-4.47,8.65-8.63,12.88-12.69,.36-.34,1.61-.36,1.96-.02,4.13,3.95,8.16,8,12.39,12.18-3.54,3.55-6.92,6.96-10.32,10.34q-3.46,3.45-6.87,.06c-3.25-3.22-6.52-6.42-10.04-9.88Z"/><path class="e" d="M176.73,257.63c-4.54-4.61-8.8-8.94-12.95-13.15,4.19-4.2,8.58-8.6,13.16-13.18,.37,.33,.99,.83,1.55,1.39,3.41,3.41,6.84,6.79,10.17,10.28,.43,.45,.66,1.81,.34,2.14-3.99,4.2-8.09,8.29-12.28,12.52Z"/><g><path class="d" d="M932.21,208.88c0-11.75,1.02-22.84-.43-33.59-.71-5.3-5.23-10.74-9.34-14.8-10.22-10.09-23.33-15.18-37.11-18.31-27.63-6.28-54.51-4.27-80.15,8.4-7.97,3.94-14.95,9.33-20.23,16.68-.7,.98-1.89,2.27-2.88,2.29-7.92,.19-15.86,.1-24.39,.1,.71-2.13,1.27-4.5,2.25-6.68,8.29-18.42,23.18-30.05,41.23-37.22,40.34-16.01,80.55-15.43,119.73,4.17,13.98,6.99,25.04,17.33,32.34,31.56,3.88,7.56,2.47,15.35,2.35,23.02-.24,15.62-1.26,31.22-1.85,46.84-.69,18.45-1.47,36.9-1.77,55.36-.09,5.55,.67,11.32,2.28,16.6,.95,3.09,4.36,5.43,6.77,8.23-5.6,2.67-10.99-.9-15.46-4.59-3.83-3.16-6.41-7.88-9.31-12.07-1.36-1.96-2.19-4.28-3.57-7.06-2.86,2.61-5.04,4.85-7.47,6.76-12.62,9.9-27.39,14.91-42.84,17.87-26.16,5.03-51.99,3.54-77.08-5.85-13.07-4.89-24.89-11.84-34.48-22.25-19.67-21.35-19.31-49.47,.91-70.38,13.93-14.4,31.18-22.33,50.51-26.37,32.28-6.76,63.51-4.23,93.22,10.77,5.57,2.81,10.64,6.62,16.77,10.5Zm-78.08-1.09c-8.07,.95-16.28,1.29-24.19,2.99-14.26,3.06-27.75,8.32-38.87,18.16-13.67,12.11-14.32,28.06-.9,40.33,6.13,5.6,13.61,10.31,21.26,13.56,21.08,8.97,43.22,10.33,65.61,6.01,15.9-3.07,30.75-8.71,42.32-20.75,10.55-10.99,11.1-23.74,1.22-35.35-2.98-3.5-6.58-6.67-10.41-9.2-16.94-11.19-35.96-15.09-56.05-15.75Z"/><path class="d" d="M1014.71,134.45c2.19-1.17,3.34-1.69,4.41-2.36,26.49-16.62,55.57-21.09,86.18-18.32,20.52,1.86,39.72,7.65,57.07,19.1,9.94,6.56,18.34,14.74,23.5,25.36,2.72,5.6,3.84,12.44,3.99,18.75,.48,20.98,.2,41.98,.2,62.96,0,19.16-.04,38.31-.06,57.47,0,1.5,.02,3-.11,4.5-.57,6.99-5.71,12.21-12.11,12.34-6.52,.14-12.33-5.27-12.49-12.41-.4-17.15-.55-34.31-.64-51.46-.13-25.66-.11-51.32-.16-76.98-.01-6.91-4.51-11.29-9.12-15.39-10.71-9.55-23.6-14.85-37.42-17.82-25.53-5.49-50.73-4.35-74.73,6.48-7.74,3.49-14.65,9.05-21.5,14.25-5.12,3.89-7.16,9.45-7.12,16.21,.22,39.32,.12,78.65,.09,117.98,0,2.31-.16,4.67-.65,6.92-1.43,6.6-5.84,9.92-12.51,9.73-5.97-.17-10.63-4.23-11.32-10.54-.56-5.12-.63-10.31-.63-15.46,0-73.32,.07-146.64,.11-219.95,0-15.16-.02-30.32,.03-45.48,.01-3.16,.12-6.35,.56-9.47,.89-6.26,5.53-10.6,11.2-10.84,6.19-.26,11.06,3.53,12.4,9.99,.57,2.75,.79,5.61,.8,8.42,.05,35.99,.03,71.98,.03,107.97,0,2.31,0,4.62,0,8.05Z"/><path class="d" d="M381.85,200.38h-60.76c1.26-11.29,5.72-21.02,11.64-30.15,8.13-12.54,19.52-21.18,33-27.35,6.68-3.06,6.58-3.26,4.14-9.97-.91-2.5-1.72-5.04-2.68-7.52-.9-2.31-1.94-4.57-3.34-7.84,6.31-1.34,12.19-2.92,18.16-3.81,30.78-4.6,58.13,3.25,81.41,23.87,24.42,21.64,34.37,49.47,33.5,81.68-.13,4.92-1.65,6.43-6.74,6.37-23.49-.24-46.98-.07-70.48,.09-11.15,.08-22.3,.59-33.45,.66-3.2,.02-4.08,1.15-4.59,4.25-2.74,16.72-5.58,33.43-8.9,50.05-.81,4.04,.19,5.37,3.76,6.19,27.42,6.28,51.8,.61,72.58-18.65,3.16-2.93,6.24-4.41,10.6-4.22,7.27,.33,14.56,.09,23.17,.09-10.24,17.21-23.37,29.72-40.11,38.21-25.02,12.7-51.03,14.74-78.37,6.04,1.98-6.23,3.75-12.21,5.79-18.11,1.29-3.73,.8-5.57-3.4-7.35-23.81-10.12-38.78-27.99-44.99-53.13-.27-1.1-.34-2.26-.58-3.89,2.37-.15,4.48-.4,6.59-.4,15.66-.03,31.33-.02,46.99-.02,7.1,0,7.35,0,7.52-6.96,.15-6.09-.36-12.2-.57-18.28,2.1,.65,4.2,1.82,6.3,1.83,25.98,.12,51.96,.08,77.95,.05,1.75,0,3.5-.18,5.73-.31-.4-2.58-.62-4.53-1.02-6.45-2.13-10.15-7.23-18.91-13.11-27.25-17.01-24.14-51.19-36.61-79.58-29.14-6.12,1.61-6.06,1.6-4.44,7.76,4.64,17.58,7.97,35.38,8.27,53.63Z"/><path class="d" d="M552.99,151.19c1.19-1.02,2.41-2,3.57-3.06,11.6-10.6,23.95-20.14,38.32-26.76,24.32-11.19,48.46-10.55,71.91,2.19,23.86,12.97,42.76,31.55,57.8,54.01,2,2.98,3.13,7.13,3.15,10.75,.23,36.66,.18,73.32,.12,109.97-.01,8.7-4.41,14.09-11.29,14.39-6.35,.28-11.34-3.6-12.34-9.9-.44-2.78-.47-5.64-.48-8.47-.03-32.99-.08-65.99,.05-98.98,.02-4.79-1.32-8.56-4.45-12.22-11.52-13.49-23.86-25.98-38.99-35.49-20.39-12.82-40.89-13.15-61.71-1.09-17.87,10.35-32.05,24.8-45.09,40.48-1.15,1.38-1.79,3.61-1.79,5.44,.06,32.82,.27,65.64,.41,98.46,.01,3.33-.02,6.68-.43,9.97-.83,6.72-6.26,11.69-12.32,11.59-6.13-.1-11.66-5.05-12.04-11.82-.43-7.62,0-15.3,.01-22.95,.01-49.16,0-98.31,.05-147.47,0-2.64,.15-5.36,.78-7.91,1.42-5.78,6.07-9.35,11.49-9.25,5.52,.1,9.88,3.7,11.21,9.58,.54,2.41,.7,4.94,.74,7.42,.1,6.81,.03,13.62,.03,20.43,.43,.22,.85,.44,1.28,.65Z"/><path class="d" d="M348.44,86.09c4.87,9.77,9.87,19.78,14.67,29.4-42.54,18.05-66.35,48.89-68.86,94.52-1.21,22.03,5.37,42.47,18.09,60.7,12.67,18.17,29.61,30.85,51.12,38.64-5.53,10.89-10.83,21.32-16.76,33-43.4-43.13-85.75-85.22-127.71-126.91,43.06-43.03,85.89-85.82,129.45-129.36Z"/><path class="d" d="M1035.31,243.19c6.04,0,11.71-.46,17.28,.11,8.58,.86,13.72,6.66,14.01,16.04,.37,11.98,.38,24,0,35.98-.37,11.44-6.51,16.59-19.05,16.93q-12.7,.35-12.7-12.38c0-16.66-.03-33.32,0-49.98,0-2.11,.28-4.22,.46-6.7Zm9.64,9.97c-.08,1.54-.25,3.16-.25,4.78-.02,13.17-.08,26.33,.05,39.5,.02,1.98-1.41,5.15,2.39,5.48,3.58,.32,7.24,.08,8.9-3.86,.75-1.78,.95-3.9,.97-5.87,.09-10.33,.15-20.67,.01-31-.11-8.47-3.01-10.61-12.07-9.04Z"/><path class="d" d="M1076.38,243.11c9.17,0,17.65,.07,26.14-.03,3.79-.04,3.17,2.55,3.19,4.81,.03,2.34,.43,4.8-3.32,4.67-5.15-.18-10.3-.04-16.36-.04,0,6.23-.15,12.14,.17,18.02,.04,.84,2.28,2.14,3.57,2.23,4.12,.29,8.27,.11,12.83,.11v8.87c-4.15,0-8.26,.13-12.35-.04-3.28-.14-4.47,1.2-4.32,4.41,.18,3.99,.19,8,.01,11.99-.14,3.01,.92,4.21,4,4.07,4.16-.19,8.36-.31,12.47,.15,1.22,.13,3.03,2.23,3.13,3.55,.17,2.09,1.71,5.85-2.17,6.02-8.92,.38-17.87,.12-26.97,.12v-68.89Z"/><path class="d" d="M1108.44,243.35c2.24-.11,3.73-.02,5.16-.28,4.75-.87,5.78,1.73,6.37,5.8,1.84,12.76,4.06,25.47,6.13,38.21l1.43,.07c.86-4.93,1.75-9.86,2.59-14.79,1.3-7.7,3.07-15.37,3.67-23.12,.42-5.51,2.85-6.76,7.56-6.12,.97,.13,1.96,.1,3.9,.19-1.13,5.75-2.17,11.18-3.27,16.6-3.31,16.3-6.72,32.57-9.93,48.89-.58,2.94-2,3.77-4.79,3.72-2.68-.05-4.79-.06-5.47-3.49-4.31-21.66-8.78-43.29-13.34-65.66Z"/></g><rect class="e" x="1146.68" y="302.76" width="11.16" height="11.16"/></g></g></svg>